<mxfile host="app.diagrams.net" modified="2024-02-04T12:36:26.529Z" agent="Mozilla/5.0 (Macintosh; Intel Mac OS X 10_15_7) AppleWebKit/537.36 (KHTML, like Gecko) Chrome/121.0.0.0 Safari/537.36" version="23.0.2" etag="ypW4LZKhV6DfX1Sp_PyL" type="github">
  <diagram name="第 1 页" id="mwz8ueXlypQZWgFj66aW">
    <mxGraphModel>
      <root>
        <mxCell id="0" />
        <mxCell id="1" parent="0" />
      </root>
    </mxGraphModel>
  </diagram>
</mxfile>
